<svg width="59" height="10" viewBox="0 0 59 10" fill="none" xmlns="http://www.w3.org/2000/svg">
<path d="M3.54 9.12C3.132 9.12 2.744 9.072 2.376 8.976C2.016 8.872 1.692 8.716 1.404 8.508C1.124 8.292 0.9 8.024 0.732 7.704C0.564 7.384 0.472 7.008 0.456 6.576C0.456 6.504 0.48 6.444 0.528 6.396C0.576 6.34 0.64 6.312 0.72 6.312H1.368C1.456 6.312 1.524 6.34 1.572 6.396C1.628 6.444 1.664 6.508 1.68 6.588C1.712 6.948 1.816 7.24 1.992 7.464C2.168 7.68 2.392 7.84 2.664 7.944C2.936 8.048 3.236 8.1 3.564 8.1C4.172 8.1 4.636 7.9 4.956 7.5C5.276 7.1 5.436 6.568 5.436 5.904V1.644H1.176C1.096 1.644 1.028 1.62 0.972 1.572C0.924 1.516 0.9 1.448 0.9 1.368V0.875999C0.9 0.796 0.924 0.732 0.972 0.684C1.028 0.628 1.096 0.599999 1.176 0.599999H6.348C6.436 0.599999 6.504 0.628 6.552 0.684C6.608 0.732 6.636 0.799999 6.636 0.887999V5.928C6.636 6.576 6.512 7.14 6.264 7.62C6.016 8.1 5.664 8.472 5.208 8.736C4.752 8.992 4.196 9.12 3.54 9.12ZM8.92547 9C8.83747 9 8.76947 8.976 8.72147 8.928C8.67347 8.872 8.64947 8.804 8.64947 8.724V0.887999C8.64947 0.799999 8.67347 0.732 8.72147 0.684C8.76947 0.628 8.83747 0.599999 8.92547 0.599999H11.6495C12.4735 0.599999 13.1375 0.724 13.6415 0.972C14.1455 1.22 14.5135 1.588 14.7455 2.076C14.9775 2.556 15.0975 3.148 15.1055 3.852C15.1135 4.212 15.1175 4.528 15.1175 4.8C15.1175 5.072 15.1135 5.384 15.1055 5.736C15.0895 6.472 14.9655 7.084 14.7335 7.572C14.5095 8.052 14.1495 8.412 13.6535 8.652C13.1655 8.884 12.5175 9 11.7095 9H8.92547ZM9.82547 7.98H11.6495C12.2015 7.98 12.6415 7.904 12.9695 7.752C13.2975 7.6 13.5335 7.356 13.6775 7.02C13.8295 6.684 13.9095 6.24 13.9175 5.688C13.9335 5.448 13.9415 5.24 13.9415 5.064C13.9415 4.88 13.9415 4.7 13.9415 4.524C13.9415 4.34 13.9335 4.132 13.9175 3.9C13.9015 3.124 13.7175 2.552 13.3655 2.184C13.0135 1.808 12.4215 1.62 11.5895 1.62H9.82547V7.98ZM22.5643 9.12C21.8683 9.12 21.2843 9.016 20.8123 8.808C20.3403 8.592 19.9763 8.316 19.7203 7.98C19.4723 7.636 19.3403 7.272 19.3243 6.888C19.3243 6.824 19.3483 6.768 19.3963 6.72C19.4523 6.664 19.5163 6.636 19.5883 6.636H20.2003C20.2963 6.636 20.3683 6.66 20.4163 6.708C20.4643 6.756 20.4963 6.812 20.5123 6.876C20.5523 7.068 20.6483 7.26 20.8003 7.452C20.9603 7.636 21.1803 7.792 21.4603 7.92C21.7483 8.04 22.1163 8.1 22.5643 8.1C23.2523 8.1 23.7563 7.98 24.0763 7.74C24.4043 7.492 24.5683 7.164 24.5683 6.756C24.5683 6.476 24.4803 6.252 24.3043 6.084C24.1363 5.908 23.8763 5.752 23.5243 5.616C23.1723 5.48 22.7163 5.332 22.1563 5.172C21.5723 5.004 21.0883 4.82 20.7043 4.62C20.3203 4.42 20.0323 4.172 19.8403 3.876C19.6563 3.58 19.5643 3.204 19.5643 2.748C19.5643 2.316 19.6803 1.932 19.9123 1.596C20.1443 1.252 20.4763 0.98 20.9083 0.779999C21.3483 0.579999 21.8803 0.48 22.5043 0.48C23.0003 0.48 23.4323 0.548 23.8003 0.684C24.1763 0.812 24.4883 0.987999 24.7363 1.212C24.9843 1.428 25.1723 1.664 25.3003 1.92C25.4283 2.168 25.4963 2.412 25.5043 2.652C25.5043 2.708 25.4843 2.764 25.4443 2.82C25.4043 2.868 25.3403 2.892 25.2523 2.892H24.6163C24.5603 2.892 24.5003 2.876 24.4363 2.844C24.3803 2.812 24.3363 2.752 24.3043 2.664C24.2563 2.336 24.0723 2.06 23.7523 1.836C23.4323 1.612 23.0163 1.5 22.5043 1.5C21.9843 1.5 21.5603 1.6 21.2323 1.8C20.9123 2 20.7523 2.312 20.7523 2.736C20.7523 3.008 20.8283 3.236 20.9803 3.42C21.1323 3.596 21.3723 3.752 21.7003 3.888C22.0283 4.024 22.4563 4.168 22.9843 4.32C23.6243 4.496 24.1483 4.684 24.5563 4.884C24.9643 5.076 25.2643 5.32 25.4563 5.616C25.6563 5.904 25.7563 6.276 25.7563 6.732C25.7563 7.236 25.6243 7.668 25.3603 8.028C25.0963 8.38 24.7243 8.652 24.2443 8.844C23.7723 9.028 23.2123 9.12 22.5643 9.12ZM29.7292 9.12C29.1212 9.12 28.6132 9.004 28.2052 8.772C27.7972 8.54 27.4852 8.22 27.2692 7.812C27.0532 7.396 26.9332 6.924 26.9092 6.396C26.9012 6.26 26.8972 6.088 26.8972 5.88C26.8972 5.664 26.9012 5.492 26.9092 5.364C26.9332 4.828 27.0532 4.356 27.2692 3.948C27.4932 3.54 27.8092 3.22 28.2172 2.988C28.6252 2.756 29.1292 2.64 29.7292 2.64C30.3292 2.64 30.8332 2.756 31.2412 2.988C31.6492 3.22 31.9612 3.54 32.1772 3.948C32.4012 4.356 32.5252 4.828 32.5492 5.364C32.5572 5.492 32.5612 5.664 32.5612 5.88C32.5612 6.088 32.5572 6.26 32.5492 6.396C32.5252 6.924 32.4052 7.396 32.1892 7.812C31.9732 8.22 31.6612 8.54 31.2532 8.772C30.8452 9.004 30.3372 9.12 29.7292 9.12ZM29.7292 8.196C30.2252 8.196 30.6212 8.04 30.9172 7.728C31.2132 7.408 31.3732 6.944 31.3972 6.336C31.4052 6.216 31.4092 6.064 31.4092 5.88C31.4092 5.696 31.4052 5.544 31.3972 5.424C31.3732 4.816 31.2132 4.356 30.9172 4.044C30.6212 3.724 30.2252 3.564 29.7292 3.564C29.2332 3.564 28.8332 3.724 28.5292 4.044C28.2332 4.356 28.0772 4.816 28.0612 5.424C28.0532 5.544 28.0492 5.696 28.0492 5.88C28.0492 6.064 28.0532 6.216 28.0612 6.336C28.0772 6.944 28.2332 7.408 28.5292 7.728C28.8332 8.04 29.2332 8.196 29.7292 8.196ZM34.3518 9C34.2718 9 34.2038 8.976 34.1478 8.928C34.0998 8.872 34.0758 8.804 34.0758 8.724V0.756C34.0758 0.676 34.0998 0.612 34.1478 0.564C34.2038 0.508 34.2718 0.48 34.3518 0.48H34.9158C35.0038 0.48 35.0718 0.508 35.1198 0.564C35.1678 0.612 35.1918 0.676 35.1918 0.756V8.724C35.1918 8.804 35.1678 8.872 35.1198 8.928C35.0718 8.976 35.0038 9 34.9158 9H34.3518ZM38.7218 9.12C38.3218 9.12 37.9578 9.04 37.6298 8.88C37.3018 8.72 37.0378 8.504 36.8378 8.232C36.6378 7.96 36.5378 7.652 36.5378 7.308C36.5378 6.756 36.7618 6.316 37.2098 5.988C37.6578 5.66 38.2418 5.444 38.9618 5.34L40.7498 5.088V4.74C40.7498 4.356 40.6378 4.056 40.4138 3.84C40.1978 3.624 39.8418 3.516 39.3458 3.516C38.9858 3.516 38.6938 3.588 38.4698 3.732C38.2538 3.876 38.1018 4.06 38.0138 4.284C37.9658 4.404 37.8818 4.464 37.7618 4.464H37.2218C37.1338 4.464 37.0658 4.44 37.0178 4.392C36.9778 4.336 36.9578 4.272 36.9578 4.2C36.9578 4.08 37.0018 3.932 37.0898 3.756C37.1858 3.58 37.3298 3.408 37.5218 3.24C37.7138 3.072 37.9578 2.932 38.2538 2.82C38.5578 2.7 38.9258 2.64 39.3578 2.64C39.8378 2.64 40.2418 2.704 40.5698 2.832C40.8978 2.952 41.1538 3.116 41.3378 3.324C41.5298 3.532 41.6658 3.768 41.7458 4.032C41.8338 4.296 41.8778 4.564 41.8778 4.836V8.724C41.8778 8.804 41.8498 8.872 41.7938 8.928C41.7458 8.976 41.6818 9 41.6018 9H41.0498C40.9618 9 40.8938 8.976 40.8458 8.928C40.7978 8.872 40.7738 8.804 40.7738 8.724V8.208C40.6698 8.352 40.5298 8.496 40.3538 8.64C40.1778 8.776 39.9578 8.892 39.6938 8.988C39.4298 9.076 39.1058 9.12 38.7218 9.12ZM38.9738 8.22C39.3018 8.22 39.6018 8.152 39.8738 8.016C40.1458 7.872 40.3578 7.652 40.5098 7.356C40.6698 7.06 40.7498 6.688 40.7498 6.24V5.904L39.3578 6.108C38.7898 6.188 38.3618 6.324 38.0738 6.516C37.7858 6.7 37.6418 6.936 37.6418 7.224C37.6418 7.448 37.7058 7.636 37.8338 7.788C37.9698 7.932 38.1378 8.04 38.3378 8.112C38.5458 8.184 38.7578 8.22 38.9738 8.22ZM43.8788 9C43.7988 9 43.7308 8.976 43.6748 8.928C43.6268 8.872 43.6028 8.804 43.6028 8.724V3.036C43.6028 2.956 43.6268 2.892 43.6748 2.844C43.7308 2.788 43.7988 2.76 43.8788 2.76H44.4428C44.5228 2.76 44.5868 2.788 44.6348 2.844C44.6908 2.892 44.7188 2.956 44.7188 3.036V3.564C44.9268 3.292 45.1868 3.072 45.4988 2.904C45.8188 2.728 46.2268 2.64 46.7228 2.64C47.2428 2.64 47.6828 2.756 48.0428 2.988C48.4108 3.212 48.6868 3.528 48.8708 3.936C49.0548 4.336 49.1468 4.804 49.1468 5.34V8.724C49.1468 8.804 49.1228 8.872 49.0748 8.928C49.0268 8.976 48.9628 9 48.8828 9H48.2828C48.2028 9 48.1348 8.976 48.0788 8.928C48.0308 8.872 48.0068 8.804 48.0068 8.724V5.4C48.0068 4.84 47.8708 4.404 47.5988 4.092C47.3268 3.772 46.9268 3.612 46.3988 3.612C45.9028 3.612 45.5028 3.772 45.1988 4.092C44.9028 4.404 44.7548 4.84 44.7548 5.4V8.724C44.7548 8.804 44.7268 8.872 44.6708 8.928C44.6228 8.976 44.5588 9 44.4788 9H43.8788ZM51.1682 9C51.0882 9 51.0202 8.976 50.9642 8.928C50.9162 8.872 50.8922 8.804 50.8922 8.724V0.756C50.8922 0.676 50.9162 0.612 50.9642 0.564C51.0202 0.508 51.0882 0.48 51.1682 0.48H51.7322C51.8122 0.48 51.8762 0.508 51.9242 0.564C51.9802 0.612 52.0082 0.676 52.0082 0.756V4.932L54.3722 2.964C54.4682 2.884 54.5402 2.832 54.5882 2.808C54.6442 2.776 54.7322 2.76 54.8522 2.76H55.4882C55.5602 2.76 55.6202 2.784 55.6682 2.832C55.7162 2.88 55.7402 2.94 55.7402 3.012C55.7402 3.044 55.7282 3.08 55.7042 3.12C55.6882 3.16 55.6522 3.2 55.5962 3.24L52.8242 5.544L55.8962 8.532C55.9922 8.612 56.0402 8.684 56.0402 8.748C56.0402 8.82 56.0162 8.88 55.9682 8.928C55.9202 8.976 55.8602 9 55.7882 9H55.1642C55.0442 9 54.9562 8.988 54.9002 8.964C54.8442 8.932 54.7722 8.876 54.6842 8.796L52.0082 6.24V8.724C52.0082 8.804 51.9802 8.872 51.9242 8.928C51.8762 8.976 51.8122 9 51.7322 9H51.1682ZM57.3437 9C57.2637 9 57.1957 8.976 57.1397 8.928C57.0917 8.872 57.0677 8.804 57.0677 8.724V3.036C57.0677 2.956 57.0917 2.892 57.1397 2.844C57.1957 2.788 57.2637 2.76 57.3437 2.76H57.9197C57.9997 2.76 58.0637 2.788 58.1117 2.844C58.1597 2.892 58.1837 2.956 58.1837 3.036V8.724C58.1837 8.804 58.1597 8.872 58.1117 8.928C58.0637 8.976 57.9997 9 57.9197 9H57.3437ZM57.2477 1.596C57.1677 1.596 57.0997 1.572 57.0437 1.524C56.9957 1.468 56.9717 1.4 56.9717 1.32V0.672C56.9717 0.592 56.9957 0.527999 57.0437 0.48C57.0997 0.424 57.1677 0.396 57.2477 0.396H58.0037C58.0837 0.396 58.1477 0.424 58.1957 0.48C58.2517 0.527999 58.2797 0.592 58.2797 0.672V1.32C58.2797 1.4 58.2517 1.468 58.1957 1.524C58.1477 1.572 58.0837 1.596 58.0037 1.596H57.2477Z" fill="white"/>
</svg>
